# AST/ASF file generated using VICON BodyLanguage
# -----------------------------------------------
:version 1.10
:name VICON
:units
  mass 1.0
  length 0.45
  angle deg
:documentation
   .ast/.asf automatically generated from VICON data using
   VICON BodyBuilder and BodyLanguage model FoxedUp or BRILLIANT.MOD
:root
   order TX TY TZ RX RY RZ
   axis XYZ
   position 0 0 0  
   orientation 0 0 0 
:bonedata
  begin
     id 1 
     name lhipjoint
     direction 0.621036 -0.695554 0.361275 
     length 2.46325 
     axis 0 0 0  XYZ
  end
  begin
     id 2 
     name lfemur
     direction 0.34202 -0.939693 0  
     length 6.54784  
     axis 0 0 20  XYZ
    dof rx ry rz
    limits (-160.0 20.0)
           (-70.0 70.0)
           (-60.0 70.0)
  end
  begin
     id 3 
     name ltibia
     direction 0.34202 -0.939693 0   
     length 7.84737   
     axis 0 0 20   XYZ
    dof rx
    limits (-10.0 170.0)
  end
  begin
     id 4 
     name lfoot
     direction 0.0790693 -0.217241 0.97291   
     length 2.59747   
     axis -90 7.62852e-016 20   XYZ
    dof rx rz
    limits (-45.0 90.0)
           (-70.0 20.0)
  end
  begin
     id 5 
     name ltoes
     direction 1.53572e-011 -4.21898e-011 1   
     length 1.29919   
     axis -90 7.62852e-016 20   XYZ
    dof rx
    limits (-90.0 20.0)
  end
  begin
     id 6 
     name rhipjoint
     direction -0.602353 -0.708375 0.367935   
     length 2.41867  
     axis 0 0 0  XYZ 
  end
  begin
     id 7 
     name rfemur
     direction -0.34202 -0.939693 0   
     length 6.92065   
     axis 0 0 -20   XYZ
    dof rx ry rz
    limits (-160.0 20.0)
           (-70.0 70.0)
           (-70.0 60.0)
  end
  begin
     id 8 
     name rtibia
     direction -0.34202 -0.939693 0   
     length 7.88883   
     axis 0 0 -20   XYZ
    dof rx
    limits (-10.0 170.0)
 end
 begin
     id 9 
     name rfoot
     direction -0.0768692 -0.211196 0.974416   
     length 2.43714  
     axis -90 -7.62852e-016 -20   XYZ
    dof rx rz
    limits (-45.0 90.0)
           (-20.0 70.0)
  end
  begin
     id 10 
     name rtoes
     direction -1.53575e-011 -4.21933e-011 1   
     length 1.22113   
     axis -90 -7.62852e-016 -20   XYZ
    dof rx
    limits (-90.0 20.0)
  end
  begin
     id 11 
     name lowerback
     direction 0.0197937 0.98943 -0.143655   
     length 2.16931   
     axis 0 0 0   XYZ
    dof rx ry rz
    limits (-20.0 45.0)
           (-30.0 30.0)
           (-30.0 30.0)
  end
  begin
     id 12 
     name upperback
     direction -0.00183968 0.999975 0.00684288   
     length 2.17221   
     axis 0 0 0   XYZ
    dof rx ry rz
    limits (-20.0 45.0)
           (-30.0 30.0)
           (-30.0 30.0)
  end
  begin
     id 13 
     name thorax
     direction -0.00950244 0.997208 0.0740685   
     length 2.22549   
     axis 0 0 0   XYZ
    dof rx ry rz
    limits (-20.0 45.0)
           (-30.0 30.0)
           (-30.0 30.0)
  end
  begin
     id 14 
     name lowerneck
     direction 0.0218238 0.996215 0.0841425   
     length 1.77269   
     axis 0 0 0   XYZ
    dof rx ry rz
    limits (-20.0 45.0)
           (-30.0 30.0)
           (-30.0 30.0)
  end
  begin
     id 15 
     name upperneck
     direction -0.00430652 0.994214 -0.107332   
     length 1.76534   
     axis 0 0 0   XYZ
    dof rx ry rz
    limits (-20.0 45.0)
           (-30.0 30.0)
           (-30.0 30.0)
  end
  begin
     id 16
     name head
     direction -0.00328946 0.998959 -0.0454998  
     length 1.82634  
     axis 0 0 0   XYZ
    dof rx ry rz
    limits (-20.0 45.0)
           (-30.0 30.0)
           (-30.0 30.0)
  end
  begin
     id 17 
     name lclavicle
     direction 0.970962 0.239191 0.00450212  
     length 3.84872  
     axis 0 0 0   XYZ
    dof ry rz
    limits (-20.0 10.0)
           (0.0 20.0)
  end
  begin
     id 18 
     name lhumerus
     direction 1 -4.48966e-011 5.74696e-028   
     length 5.22771   
     axis 180 -30 -90   XYZ
    dof rx ry rz
    limits (-60.0 90.0)
           (-90.0 90.0)
           (-90.0 90.0)
  end
  begin
     id 19
     name lradius
     direction 1 -4.4896e-011 4.25109e-027   
     length 3.45251   
     axis 180 -30 -90   XYZ
    dof rx
    limits (-10.0 170.0)
  end
  begin
     id 20
     name lwrist
     direction 1 -4.48971e-011 1.15382e-027   
     length 1.72626   
     axis -5.52449e-016 90 90   XYZ
    dof ry
    limits (-180.0 0.0)
 end
  begin
     id 21 
     name lhand
     direction 1 -4.49034e-011 2.30765e-027   
     length 0.552119   
     axis -1.47248e-015 90 90   XYZ
    dof rx rz
    limits (-90.0 90.0)
           (-45.0 45.0)
  end
  begin
     id 22 
     name lfingers
     direction 1 -4.48951e-011 4.61529e-027   
     length 0.445133   
     axis -2.94495e-015 90 90   XYZ
    dof rx
    limits (0.0 90.0)
  end
  begin
     id 23
     name lthumb
     direction 0.707107 -6.34991e-011 0.707107   
     length 0.639124   
     axis -90 45 2.85299e-015   XYZ
    dof rx rz
    limits (-45.0 45.0)
           (-45.0 45.0)
  end
  begin
     id 24 
     name rclavicle
     direction -0.97424 0.222511 -0.0366699   
     length 3.73439  
     axis 0 0 0   XYZ 
    dof ry rz
    limits (-10.0 20.0)
           (-20.0 0.0)
  end
  begin
     id 25 
     name rhumerus
     direction -1 -4.48956e-011 -4.97258e-028  
     length 5.2398   
     axis 180 30 90   XYZ
    dof rx ry rz
    limits (-90.0 60.0)
           (-90.0 90.0)
           (-90.0 90.0)
  end
  begin
     id 26 
     name rradius
     direction -1 -4.4897e-011 -1.72611e-027   
     length 3.48042   
     axis 180 30 90   XYZ
    dof rx
    limits (-10.0 170.0)
  end
  begin
     id 27 
     name rwrist
     direction -1 -4.48976e-011 1.15382e-027   
     length 1.74021   
     axis -5.52449e-016 -90 -90   XYZ
    dof ry
    limits (-180.0 0.0)
  end
  begin
     id 28
     name rhand
     direction -1 -4.48963e-011 2.30765e-027   
     length 0.618713   
     axis -1.47248e-015 -90 -90   XYZ
    dof rx rz
    limits (-90.0 90.0)
           (-45.0 45.0)
  end
  begin
     id 29
     name rfingers
     direction -1 -4.4888e-011 4.61529e-027   
     length 0.498823   
     axis -2.94495e-015 -90 -90   XYZ
    dof rx
    limits (0.0 90.0)
  end
  begin
     id 30
     name rthumb
     direction -0.707107 -6.34968e-011 0.707107   
     length 0.716213   
     axis -90 -45 -2.85299e-015   XYZ
    dof rx rz
    limits (-45.0 45.0)
           (-45.0 45.0)
  end
:hierarchy
  begin
    root lhipjoint rhipjoint lowerback
    lhipjoint lfemur
    lfemur ltibia
    ltibia lfoot
    lfoot ltoes
    rhipjoint rfemur
    rfemur rtibia
    rtibia rfoot
    rfoot rtoes
    lowerback upperback
    upperback thorax
    thorax lowerneck lclavicle rclavicle
    lowerneck upperneck
    upperneck head
    lclavicle lhumerus
    lhumerus lradius
    lradius lwrist
    lwrist lhand lthumb
    lhand lfingers
    rclavicle rhumerus
    rhumerus rradius
    rradius rwrist
    rwrist rhand rthumb
    rhand rfingers
  end

#!OML:ASF G:\JayActor3\Patient Classification 1\Patient 1\Session 5\male.ASF
:FULLY-SPECIFIED
:DEGREES
134
root -39.6596 16.9895 -5.07568 -118.62 86.8513 -126.12
lowerback 13.4876 -1.21476 2.41858
upperback 7.39282 -0.95088 -0.73268
thorax 0.154838 -0.231374 -2.00028
lowerneck -3.54362 -0.90202 1.37075
upperneck -8.07398 -0.866139 3.31457
head -1.91062 -0.460001 0.810112
rclavicle 7.7526e-015 -3.18055e-015
rhumerus -31.1703 2.29777 -89.927
rradius 41.3686
rwrist -3.7461
rhand -19.8864 -9.36829
rfingers 7.12502
rthumb 6.44947 -39.2501
lclavicle 7.7526e-015 -3.18055e-015
lhumerus -29.3279 0.597623 83.8246
lradius 40.0016
lwrist 23.3528
lhand -19.1656 13.9568
lfingers 7.12502
lthumb 7.1453 43.8162
rfemur -24.5834 2.87638 23.1635
rtibia 40.8235
rfoot -25.2927 -11.5442
rtoes 7.59511
lfemur -18.628 4.53236 -16.8622
ltibia 29.5649
lfoot -15.8105 1.85518
ltoes -7.42125
135
root -39.6771 16.9781 -5.07267 -119.184 86.8085 -127.046
lowerback 13.7678 -1.23089 2.4159
upperback 7.4399 -0.956941 -0.723749
thorax 0.0550529 -0.231958 -1.98637
lowerneck -3.29544 -0.895887 1.37959
upperneck -8.63328 -0.819434 3.34712
head -2.13697 -0.44329 0.825348
rclavicle 2.5842e-015 -1.86858e-014
rhumerus -31.137 2.37827 -89.9222
rradius 41.6504
rwrist -3.88609
rhand -19.8876 -9.41436
rfingers 7.12502
rthumb 6.44835 -39.2962
lclavicle 2.5842e-015 -1.86858e-014
lhumerus -29.2935 0.537201 83.7684
lradius 40.2774
lwrist 23.4307
lhand -19.1135 13.865
lfingers 7.12502
lthumb 7.19561 43.7227
rfemur -25.2656 2.73345 23.1629
rtibia 41.2128
rfoot -25.3015 -11.3935
rtoes 7.44972
lfemur -19.4801 4.64512 -16.8724
ltibia 30.2094
lfoot -15.8377 1.64219
ltoes -7.781
136
root -39.6931 16.9662 -5.07044 -119.031 86.7718 -127.239
lowerback 14.0414 -1.23602 2.42912
upperback 7.49248 -0.946569 -0.712164
thorax -0.0344173 -0.223663 -1.98101
lowerneck -3.05528 -0.892665 1.38192
upperneck -9.172 -0.777192 3.3782
head -2.35757 -0.428314 0.841145
rclavicle 0 1.19271e-015
rhumerus -31.1029 2.46028 -89.9136
rradius 41.9177
rwrist -4.0287
rhand -19.8851 -9.46583
rfingers 7.12502
rthumb 6.45077 -39.3476
lclavicle 0 1.19271e-015
lhumerus -29.2529 0.494032 83.7121
lradius 40.5322
lwrist 23.5061
lhand -19.0458 13.7676
lfingers 7.12502
lthumb 7.26093 43.623
rfemur -25.9322 2.59168 23.1794
rtibia 41.604
rfoot -25.279 -11.2164
rtoes 7.27329
lfemur -20.3036 4.76736 -16.867
ltibia 30.8625
lfoot -15.9043 1.45272
ltoes -8.0644
137
root -39.7075 16.9541 -5.06918 -118.375 86.7507 -126.918
lowerback 14.3193 -1.23365 2.4564
upperback 7.53832 -0.925017 -0.709559
thorax -0.132654 -0.209629 -1.99459
lowerneck -2.82586 -0.890055 1.38269
upperneck -9.67587 -0.736827 3.41448
head -2.567 -0.413965 0.858618
rclavicle 9.74045e-015 1.35174e-014
rhumerus -31.0841 2.5391 -89.9133
rradius 42.1718
rwrist -4.16829
rhand -19.8812 -9.52392
rfingers 7.12502
rthumb 6.45451 -39.4056
lclavicle 9.74045e-015 1.35174e-014
lhumerus -29.2198 0.459186 83.6461
lradius 40.7651
lwrist 23.5806
lhand -18.9811 13.7012
lfingers 7.12502
lthumb 7.32343 43.5544
rfemur -26.5897 2.44263 23.197
rtibia 41.9984
rfoot -25.2303 -11.0054
rtoes 7.09781
lfemur -21.1009 4.88986 -16.862
ltibia 31.5186
lfoot -16.0057 1.29033
ltoes -8.29448
138
root -39.7207 16.942 -5.0684 -117.434 86.7352 -126.306
lowerback 14.5996 -1.22814 2.49756
upperback 7.5734 -0.898241 -0.714715
thorax -0.243185 -0.193095 -2.02502
lowerneck -2.60766 -0.888603 1.39127
upperneck -10.14 -0.700316 3.44599
head -2.76314 -0.401362 0.872939
rclavicle 2.98177e-015 -5.1684e-015
rhumerus -31.0841 2.61421 -89.9231
rradius 42.4117
rwrist -4.30559
rhand -19.8743 -9.58893
rfingers 7.12502
rthumb 6.4612 -39.4704
lclavicle 2.98177e-015 -5.1684e-015
lhumerus -29.1958 0.435453 83.5674
lradius 40.9703
lwrist 23.6541
lhand -18.9128 13.659
lfingers 7.12502
lthumb 7.38931 43.51
rfemur -27.2434 2.28841 23.2198
rtibia 42.3966
rfoot -25.1609 -10.7749
rtoes 6.94016
lfemur -21.8803 5.01191 -16.854
ltibia 32.1729
lfoot -16.1422 1.13749
ltoes -8.42887
139
root -39.7328 16.9302 -5.06788 -116.671 86.7313 -125.866
lowerback 14.8707 -1.22369 2.52651
upperback 7.60909 -0.874595 -0.725394
thorax -0.347993 -0.178317 -2.05419
lowerneck -2.40476 -0.886264 1.397
upperneck -10.5751 -0.663852 3.47867
head -2.94848 -0.388355 0.887832
rclavicle -1.82882e-014 -3.97569e-014
rhumerus -31.0802 2.69324 -89.9351
rradius 42.6297
rwrist -4.44095
rhand -19.8768 -9.63797
rfingers 7.12502
rthumb 6.45875 -39.5195
lclavicle -1.82882e-014 -3.97569e-014
lhumerus -29.1596 0.435284 83.4817
lradius 41.1396
lwrist 23.7297
lhand -18.8589 13.6491
lfingers 7.12502
lthumb 7.4413 43.4983
rfemur -27.8925 2.12049 23.2287
rtibia 42.8039
rfoot -25.0817 -10.5356
rtoes 6.80632
lfemur -22.6436 5.11891 -16.8624
ltibia 32.818
lfoot -16.2779 0.988802
ltoes -8.55862
140
root -39.7441 16.9187 -5.06683 -116.374 86.7235 -125.871
lowerback 15.1515 -1.2276 2.5461
upperback 7.64397 -0.862511 -0.739669
thorax -0.459025 -0.169478 -2.08023
lowerneck -2.21811 -0.882764 1.41249
upperneck -10.9758 -0.628292 3.50309
head -3.12071 -0.375567 0.897988
rclavicle -2.18663e-015 -4.37326e-015
rhumerus -31.0746 2.77007 -89.9531
rradius 42.8216
rwrist -4.56393
rhand -19.8853 -9.67195
rfingers 7.12502
rthumb 6.45054 -39.5537
lclavicle -2.18663e-015 -4.37326e-015
lhumerus -29.1184 0.450182 83.3866
lradius 41.2753
lwrist 23.802
lhand -18.829 13.703
lfingers 7.12502
lthumb 7.47018 43.5511
rfemur -28.5227 1.9371 23.2349
rtibia 43.2241
rfoot -25.0082 -10.3104
rtoes 6.67775
lfemur -23.382 5.22655 -16.8778
ltibia 33.4505
lfoot -16.4017 0.806379
ltoes -8.67097
141
root -39.7546 16.9071 -5.06564 -116.383 86.7326 -126.167
lowerback 15.4296 -1.23069 2.54245
upperback 7.68231 -0.852288 -0.761423
thorax -0.564655 -0.16179 -2.10087
lowerneck -2.03263 -0.879135 1.43669
upperneck -11.3591 -0.593668 3.52124
head -3.2882 -0.363345 0.90447
rclavicle 6.95746e-015 -1.59028e-015
rhumerus -31.061 2.8387 -89.9726
rradius 42.987
rwrist -4.67145
rhand -19.897 -9.68769
rfingers 7.12502
rthumb 6.43922 -39.5698
lclavicle 6.95746e-015 -1.59028e-015
lhumerus -29.0674 0.477006 83.2856
lradius 41.3811
lwrist 23.8675
lhand -18.8221 13.7804
lfingers 7.12502
lthumb 7.4769 43.6283
rfemur -29.1415 1.7489 23.2215
rtibia 43.6637
rfoot -24.9502 -10.0861
rtoes 6.57601
lfemur -24.0993 5.34093 -16.9179
ltibia 34.0711
lfoot -16.5006 0.600567
ltoes -8.78997
142
root -39.7641 16.8949 -5.06417 -116.77 86.7608 -126.82
lowerback 15.7117 -1.23484 2.51236
upperback 7.72255 -0.846863 -0.791752
thorax -0.670095 -0.156825 -2.11491
lowerneck -1.84776 -0.875707 1.46043
upperneck -11.7281 -0.559613 3.54082
head -3.45197 -0.351408 0.911383
rclavicle -2.5842e-015 8.34896e-015
rhumerus -31.0418 2.90549 -89.9958
rradius 43.1248
rwrist -4.76553
rhand -19.9212 -9.67923
rfingers 7.12502
rthumb 6.41587 -39.5621
lclavicle -2.5842e-015 8.34896e-015
lhumerus -29.0117 0.51244 83.1785
lradius 41.4603
lwrist 23.9225
lhand -18.8402 13.8869
lfingers 7.12502
lthumb 7.45941 43.7354
rfemur -29.7442 1.55248 23.1848
rtibia 44.125
rfoot -24.902 -9.87415
rtoes 6.39807
lfemur -24.7959 5.46888 -16.9871
ltibia 34.6865
lfoot -16.5697 0.364273
ltoes -8.92851
143
root -39.773 16.8819 -5.06271 -117.295 86.804 -127.599
lowerback 15.9799 -1.2369 2.45752
upperback 7.77059 -0.842301 -0.821349
thorax -0.759476 -0.152421 -2.11426
lowerneck -1.67379 -0.87072 1.48136
upperneck -12.0865 -0.524669 3.55253
head -3.61128 -0.338453 0.915986
rclavicle 5.96354e-015 2.5842e-014
rhumerus -31.0031 2.98017 -90.0124
rradius 43.2403
rwrist -4.84839
rhand -19.9463 -9.66893
rfingers 7.12502
rthumb 6.39162 -39.5525
lclavicle 5.96354e-015 2.5842e-014
lhumerus -28.942 0.56865 83.0756
lradius 41.5161
lwrist 23.9612
lhand -18.8408 14.1333
lfingers 7.12502
lthumb 7.45883 43.9818
rfemur -30.3422 1.3509 23.1337
rtibia 44.6081
rfoot -24.8757 -9.65591
rtoes 6.16463
lfemur -25.4876 5.60858 -17.0756
ltibia 35.3093
lfoot -16.6064 0.109536
ltoes -9.11089
